<svg width="1024" height="1024" viewBox="0 0 16 16" xmlns="http://www.w3.org/2000/svg"><style>.poutline{fill:none;stroke:#8d35e2;stroke-width:.4}@media (prefers-color-scheme:light){.poutline{fill:none;stroke:#8d35e2;stroke-width:.4}@media (prefers-color-scheme:dark){.poutline{fill:none;stroke:#8d35e2;stroke-width:.4}}}</style><circle cx="8" cy="8" r="8" class="poutline"/><path d="M7.046 7H4.312A.312.312 0 0 0 4 7.313v1.375c0 .172.14.312.313.312H7m1.95-2h2.738c.172 0 .312.14.312.313v1.375c0 .172-.14.312-.313.312H8.96" class="poutline"/><path d="M7 7.046V4.312C7 4.14 7.14 4 7.313 4h1.375C8.86 4 9 4.14 9 4.313v2.733M7 8.95v2.738c0 .172.14.312.313.312h1.375c.172 0 .312-.14.312-.313V8.95" class="poutline"/></svg>